<!DOCTYPE svg PUBLIC "-//W3C//DTD SVG 1.1//EN" "http://www.w3.org/Graphics/SVG/1.1/DTD/svg11.dtd">
<!-- Uploaded to: SVG Repo, www.svgrepo.com, Transformed by: SVG Repo Mixer Tools -->
<svg height="800px" width="800px" version="1.1" id="Layer_1" xmlns="http://www.w3.org/2000/svg" xmlns:xlink="http://www.w3.org/1999/xlink" viewBox="0 0 280.028 280.028" xml:space="preserve" fill="#000000">
<g id="SVGRepo_bgCarrier" stroke-width="0"/>
<g id="SVGRepo_tracerCarrier" stroke-linecap="round" stroke-linejoin="round"/>
<g id="SVGRepo_iconCarrier"> <g> <path style="fill:#FFFF00;" d="M52.506,0h175.017c9.661,0,17.502,7.832,17.502,17.502v245.024c0,10.212-7.71,17.502-17.502,17.502 c-8.191,0-70.269-38.81-78.758-43.754c-8.497-4.944-8.628-5.233-17.502,0c-8.873,5.259-70.409,43.754-78.758,43.754 c-9.915,0-17.502-7.027-17.502-17.502V17.502C35.004,7.832,42.845,0,52.506,0z"/> <path style="fill:#FFFF00;" d="M227.523,0h-87.509v232.466c2.258-0.018,4.419,1.278,8.751,3.807 c8.453,4.927,70.086,43.448,78.618,43.728h0.411c9.661-0.14,17.23-7.359,17.23-17.475V17.502C245.025,7.832,237.184,0,227.523,0z"/> <path style="fill:#FFFF00;" d="M210.048,105.395l-46.038-3.404l-23.995-49.486l-24.266,49.486l-45.758,3.404l30.628,38.197 l-8.751,48.9l48.147-22.507l48.147,22.507l-8.908-48.9C179.253,143.593,210.048,105.395,210.048,105.395z"/> <polygon style="fill:#FFFF00;" points="188.162,192.501 179.253,143.602 210.048,105.395 164.009,101.991 140.015,52.505 140.015,170.003 "/> </g> </g>
</svg>