<svg width="22" height="22" viewBox="0 0 22 22" fill="none" xmlns="http://www.w3.org/2000/svg">
<path fill-rule="evenodd" clip-rule="evenodd" d="M11.21 9.5V13.1H17.165C16.925 14.645 15.365 17.63 11.21 17.63C7.62496 17.63 4.69996 14.66 4.69996 11C4.69996 7.34 7.62496 4.37 11.21 4.37C13.25 4.37 14.615 5.24 15.395 5.99L18.245 3.245C16.415 1.535 14.045 0.5 11.21 0.5C5.40496 0.5 0.709961 5.195 0.709961 11C0.709961 16.805 5.40496 21.5 11.21 21.5C17.27 21.5 21.29 17.24 21.29 11.24C21.29 10.55 21.215 10.025 21.125 9.5H11.21Z" fill="#DD4B39"/>
</svg>
