<svg width="24" height="20" viewBox="0 0 24 20" fill="none" xmlns="http://www.w3.org/2000/svg">
<path d="M4.5867 14.8226C4.66148 14.882 4.7509 14.9112 4.83991 14.9112C4.95941 14.9112 5.07768 14.8588 5.15816 14.758C5.29797 14.5824 5.26912 14.3268 5.09353 14.187C4.76797 13.9277 4.45257 13.646 4.15668 13.3497L1.14982 10.3428L4.25057 7.24209C7.23142 4.26165 11.5677 3.24432 15.5655 4.58639C15.7781 4.65671 16.0085 4.54291 16.0805 4.33034C16.1516 4.11777 16.0374 3.88691 15.8244 3.81537C11.5316 2.37454 6.87619 3.46705 3.67586 6.66697L0 10.3428L3.58157 13.9244C3.899 14.2422 4.23757 14.5442 4.5867 14.8226Z" fill="#1BAC4B"/>
<path d="M20.4184 6.66737C19.8705 6.11949 19.2698 5.62526 18.6325 5.19768C18.4464 5.0729 18.1932 5.12249 18.0684 5.30864C17.9432 5.49479 17.9932 5.7476 18.1793 5.87278C18.7727 6.27069 19.3328 6.73159 19.8433 7.24208L22.8502 10.2489L19.7494 13.3497C16.7479 16.3513 12.225 17.3661 8.22598 15.933C8.01463 15.857 7.78174 15.9672 7.70614 16.1785C7.63054 16.3899 7.74028 16.6224 7.95163 16.6984C9.24493 17.1617 10.5894 17.3865 11.925 17.3865C15.0225 17.3865 18.072 16.1765 20.3241 13.9244L23.9996 10.2489L20.4184 6.66737Z" fill="#1BAC4B"/>
<path d="M12.4123 14.9787C11.5372 14.9787 10.6845 14.7357 9.94519 14.2756C9.75538 14.1577 9.50461 14.2154 9.38552 14.406C9.26684 14.5967 9.32537 14.847 9.51599 14.9657C10.3837 15.5063 11.3856 15.7916 12.4123 15.7916C15.4379 15.7916 17.8993 13.3302 17.8993 10.3046C17.8993 9.21332 17.5794 8.15901 16.9746 7.25549C16.8494 7.06894 16.5966 7.01894 16.4109 7.14372C16.2243 7.2689 16.1743 7.52131 16.2991 7.70746C16.8141 8.47685 17.0864 9.37468 17.0864 10.3046C17.0864 12.8823 14.9895 14.9787 12.4123 14.9787Z" fill="#1BAC4B"/>
<path d="M12.4123 5.63054C13.2516 5.63054 14.0742 5.8553 14.792 6.28085C14.9847 6.39506 15.2342 6.33165 15.3488 6.13819C15.4631 5.94513 15.3997 5.69598 15.2062 5.58136C14.3632 5.08184 13.3971 4.81766 12.4119 4.81766C9.38634 4.81766 6.92493 7.27907 6.92493 10.3046C6.92493 11.1517 7.1127 11.9641 7.48338 12.7193C7.5541 12.8632 7.69839 12.9469 7.84877 12.9469C7.90852 12.9469 7.96989 12.9335 8.0272 12.9054C8.22879 12.8063 8.31211 12.5628 8.21335 12.3616C7.89795 11.7186 7.73781 11.0269 7.73781 10.305C7.73822 7.72738 9.83505 5.63054 12.4123 5.63054Z" fill="#1BAC4B"/>
<path d="M22.2003 0.26266C22.0413 0.103741 21.7845 0.103741 21.6256 0.26266L2.726 19.1622C2.56708 19.3211 2.56708 19.578 2.726 19.7369C2.80526 19.8162 2.90931 19.856 3.01336 19.856C3.1174 19.856 3.22145 19.8162 3.30071 19.7369L22.2003 0.837369C22.3592 0.678857 22.3592 0.421579 22.2003 0.26266Z" fill="#1BAC4B"/>
</svg>
