<svg width="200" height="200" viewBox="0 0 200 200" fill="none" xmlns="http://www.w3.org/2000/svg">
<path d="M124.99 81.2515H118.741V68.7524C118.741 54.966 107.529 43.7544 93.7427 43.7544C79.9563 43.7544 68.7446 54.966 68.7446 68.7524V81.2515H62.4951C59.0454 81.2515 56.2456 84.0513 56.2456 87.501V137.497C56.2456 140.947 59.0454 143.747 62.4951 143.747H124.99C128.44 143.747 131.24 140.947 131.24 137.497V87.501C131.24 84.0513 128.44 81.2515 124.99 81.2515ZM81.2437 68.7524C81.2437 61.8655 86.8432 56.2534 93.7427 56.2534C100.642 56.2534 106.242 61.8655 106.242 68.7524V81.2515H81.2437V68.7524ZM118.741 131.248H68.7446V93.7505H118.741V131.248Z" fill="#1BAC4B"/>
<path d="M196.072 62.9529C192.86 61.6655 189.223 63.2279 187.96 66.4401L184.223 75.7894C173.486 35.805 137.052 6.25732 93.7427 6.25732C42.0467 6.25732 0 48.304 0 100C0 151.696 42.0467 193.743 93.7427 193.743C118.778 193.743 142.314 183.993 160.038 166.282C162.475 163.845 162.475 159.883 160.038 157.446C157.6 155.008 153.638 155.008 151.201 157.446C135.839 172.794 115.428 181.244 93.7427 181.244C48.9462 181.244 12.499 144.797 12.499 100C12.499 55.2035 48.9462 18.7563 93.7427 18.7563C132.752 18.7563 165.412 46.4042 173.199 83.1263L160.662 70.5773C158.225 68.14 154.263 68.14 151.826 70.5773C149.388 73.0146 149.388 76.9768 151.826 79.4141L176.824 104.412C176.961 104.55 177.149 104.6 177.299 104.725C177.774 105.125 178.261 105.512 178.836 105.75C179.586 106.087 180.411 106.25 181.236 106.25C181.648 106.25 182.073 106.212 182.498 106.125C182.673 106.087 182.798 105.95 182.961 105.9C183.598 105.712 184.173 105.425 184.711 105.062C184.948 104.9 185.186 104.787 185.398 104.6C186.085 103.975 186.66 103.237 187.023 102.362C187.023 102.35 187.035 102.337 187.048 102.325L199.547 71.0773C200.834 67.8775 199.284 64.2403 196.072 62.9529Z" fill="#1BAC4B"/>
</svg>
