<svg width="348" height="361" viewBox="0 0 348 361" fill="none" xmlns="http://www.w3.org/2000/svg">
<path opacity="0.15" fill-rule="evenodd" clip-rule="evenodd" d="M299.25 0.0179357C311.951 -0.509815 321.359 10.7129 330.173 19.9762C338.748 28.9883 347.702 38.7438 347.992 51.2464C348.286 63.9597 340.603 75.0796 331.657 84.0172C322.775 92.8907 311.721 99.3489 299.25 99.9423C286.182 100.564 273.331 96.1429 263.642 87.2537C253.463 77.9151 244.653 65.0595 246.171 51.2464C247.612 38.1403 261.334 31.5492 270.767 22.4446C279.816 13.7111 286.751 0.537248 299.25 0.0179357Z" fill="#1BAC4B"/>
<path opacity="0.15" fill-rule="evenodd" clip-rule="evenodd" d="M42.3165 249.833C55.5175 252.594 57.7161 270.554 68.4608 278.72C83.1497 289.884 111.963 286.664 114.796 304.919C117.525 322.505 92.214 329.976 78.0886 340.766C66.8639 349.339 55.7968 364.471 42.3165 360.281C28.7485 356.064 30.5652 336.132 23.4821 323.792C19.5336 316.914 13.2144 312.388 10.5385 304.919C5.76592 291.598 -4.68606 277.154 2.38257 264.901C9.78293 252.073 27.8419 246.806 42.3165 249.833Z" fill="#1BAC4B"/>
<g clip-path="url(#clip0_35_106)">
<path d="M248.259 209.269C247.172 208.182 245.421 208.193 244.333 209.28C243.246 210.367 243.257 212.139 244.344 213.227C244.887 213.77 245.6 214.042 246.312 214.042C247.024 214.042 247.737 213.77 248.28 213.227C249.367 212.139 249.367 210.377 248.28 209.29L248.259 209.269Z" fill="#1BAC4B"/>
<path d="M230.749 209.261C229.658 208.178 227.906 208.196 226.824 209.288C225.742 210.379 225.76 212.152 226.852 213.234C227.394 213.773 228.103 214.042 228.811 214.042C229.528 214.042 230.243 213.767 230.788 213.218C231.87 212.127 231.862 210.364 230.771 209.282L230.749 209.261Z" fill="#1BAC4B"/>
<path d="M213.256 209.269C212.17 208.182 210.418 208.193 209.331 209.28C208.244 210.367 208.255 212.139 209.342 213.227C209.885 213.77 210.597 214.042 211.309 214.042C212.022 214.042 212.734 213.77 213.277 213.227C214.364 212.139 214.364 210.377 213.277 209.29L213.256 209.269Z" fill="#1BAC4B"/>
<path d="M195.755 209.269C194.668 208.182 192.917 208.193 191.83 209.28C190.743 210.367 190.753 212.139 191.84 213.227C192.384 213.77 193.096 214.042 193.808 214.042C194.52 214.042 195.233 213.77 195.776 213.227C196.863 212.139 196.863 210.377 195.776 209.29L195.755 209.269Z" fill="#1BAC4B"/>
<path d="M178.254 209.269C177.167 208.182 175.416 208.193 174.328 209.28C173.242 210.367 173.252 212.139 174.339 213.227C174.883 213.77 175.595 214.042 176.307 214.042C177.019 214.042 177.732 213.77 178.275 213.227C179.362 212.139 179.362 210.377 178.275 209.29L178.254 209.269Z" fill="#1BAC4B"/>
<path d="M160.752 209.269C159.666 208.182 157.914 208.193 156.827 209.28C155.74 210.367 155.751 212.139 156.838 213.227C157.381 213.77 158.094 214.042 158.806 214.042C159.518 214.042 160.23 213.77 160.774 213.227C161.86 212.139 161.86 210.377 160.774 209.29L160.752 209.269Z" fill="#1BAC4B"/>
<path d="M239.859 196.379C239.005 195.101 237.276 194.758 235.999 195.612C234.721 196.467 234.377 198.195 235.232 199.472L235.254 199.505C235.79 200.307 236.671 200.742 237.57 200.742C238.102 200.742 238.639 200.589 239.114 200.272C240.392 199.417 240.736 197.689 239.881 196.411L239.859 196.379Z" fill="#1BAC4B"/>
<path d="M222.001 195.958C220.914 194.871 219.152 194.871 218.066 195.958C216.979 197.045 216.979 198.807 218.066 199.894L218.098 199.926C218.641 200.47 219.354 200.741 220.066 200.741C220.778 200.741 221.49 200.47 222.034 199.926C223.121 198.839 223.121 197.077 222.034 195.99L222.001 195.958Z" fill="#1BAC4B"/>
<path d="M204.479 195.936C203.392 194.849 201.641 194.86 200.554 195.947C199.467 197.034 199.477 198.807 200.564 199.894C201.108 200.437 201.82 200.709 202.532 200.709C203.244 200.709 203.957 200.437 204.5 199.894C205.587 198.807 205.587 197.045 204.5 195.958L204.479 195.936Z" fill="#1BAC4B"/>
<path d="M186.978 195.936C185.891 194.849 184.139 194.86 183.052 195.947C181.965 197.034 181.976 198.807 183.063 199.894C183.606 200.437 184.319 200.709 185.031 200.709C185.743 200.709 186.455 200.437 186.999 199.894C188.086 198.807 188.086 197.045 186.999 195.958L186.978 195.936Z" fill="#1BAC4B"/>
<path d="M169.807 196.334C168.958 195.054 167.23 194.702 165.949 195.553C164.668 196.402 164.318 198.129 165.167 199.41L165.189 199.442C165.724 200.251 166.609 200.688 167.511 200.688C168.039 200.688 168.573 200.538 169.046 200.224C170.328 199.375 170.678 197.648 169.828 196.367L169.807 196.334Z" fill="#1BAC4B"/>
<path d="M209.708 186.963C210.186 187.286 210.728 187.441 211.264 187.441C212.157 187.441 213.035 187.012 213.572 186.216L213.594 186.184C214.455 184.911 214.12 183.181 212.847 182.32C211.574 181.458 209.844 181.793 208.983 183.066L208.961 183.098C208.1 184.372 208.435 186.102 209.708 186.963Z" fill="#1BAC4B"/>
<path d="M192.216 186.969C192.692 187.288 193.23 187.441 193.763 187.441C194.66 187.441 195.541 187.008 196.077 186.207L196.099 186.175C196.955 184.899 196.614 183.17 195.337 182.314C194.06 181.458 192.331 181.799 191.475 183.076L191.454 183.108C190.598 184.384 190.939 186.113 192.216 186.969Z" fill="#1BAC4B"/>
<path d="M257.876 227.932C261.805 227.932 265 224.736 265 220.808V217.003C265 202.09 258.127 189.586 245.123 180.843C233.847 173.261 218.727 169.086 202.548 169.086C202.045 169.086 201.543 169.09 201.042 169.098L202.607 157.609C206.497 157.439 209.613 154.23 209.613 150.298V143.92C209.613 139.874 206.326 136.582 202.286 136.582H153.444V119.513L175.577 113.752C180.375 112.494 183.267 107.565 182.022 102.758C180.767 97.9542 175.833 95.0567 171.018 96.2987L142.155 103.823C138.123 104.878 135.414 108.384 135.414 112.55V136.582H82.3273C78.2868 136.582 75 139.874 75 143.92V150.297C75 154.229 78.1157 157.439 82.0066 157.608L98.2817 277.064C98.996 282.319 102.81 285.989 107.556 285.989H151.893H253.204C259.708 285.989 265 280.697 265 274.192V267.151C265 264.528 262.862 262.395 260.234 262.395H254.979V254.795C259.714 253.475 263.199 249.123 263.199 243.969C263.199 238.855 259.763 234.533 255.079 233.181C255.723 231.587 256.166 229.83 256.381 227.932H257.876ZM140.98 112.55C140.98 110.931 141.994 109.619 143.561 109.209L172.415 101.687C174.261 101.211 176.155 102.322 176.635 104.159C177.111 105.998 176.003 107.886 174.17 108.367L149.96 114.668C148.733 114.987 147.877 116.095 147.877 117.362V136.582H140.979V112.55H140.98ZM87.6268 157.625H138.122C139.659 157.625 140.905 156.379 140.905 154.841C140.905 153.304 139.659 152.058 138.122 152.058H82.3273C81.3728 152.058 80.5664 151.252 80.5664 150.297V143.92C80.5664 142.96 81.3728 142.148 82.3273 142.148H202.286C203.24 142.148 204.047 142.96 204.047 143.92V150.297C204.047 151.252 203.24 152.058 202.286 152.058H151.347C149.81 152.058 148.563 153.304 148.563 154.841C148.563 156.379 149.81 157.625 151.347 157.625H196.987L195.388 169.364C181.945 170.41 169.567 174.392 159.974 180.843C153.951 184.893 149.246 189.751 145.927 195.279L95.0799 212.331L87.6268 157.625ZM95.5853 216.038C95.6028 216.091 95.6076 216.144 95.6072 216.198L95.5853 216.038ZM95.8451 217.945L142.603 202.265C140.945 206.843 140.096 211.774 140.096 217.003V220.808C140.096 224.736 143.292 227.932 147.22 227.932H148.716C148.93 229.83 149.373 231.586 150.017 233.181C145.333 234.533 141.897 238.856 141.897 243.969C141.897 244.918 142.017 245.838 142.239 246.719L101.68 260.771L95.8451 217.945ZM141.883 280.422H107.556C105.345 280.422 104.075 278.359 103.797 276.314L102.446 266.397L144.963 251.666C146.348 253.136 148.119 254.238 150.117 254.795V262.395H144.863C142.234 262.395 140.096 264.528 140.096 267.151V274.192C140.096 276.478 140.752 278.613 141.883 280.422ZM259.434 267.962V274.192C259.434 277.628 256.639 280.422 253.204 280.422H151.893C148.458 280.422 145.663 277.628 145.663 274.192V267.962H200.067C201.604 267.962 202.85 266.716 202.85 265.179C202.85 263.641 201.604 262.395 200.067 262.395H155.684V255.208H249.413V262.395H213.164C211.627 262.395 210.381 263.641 210.381 265.179C210.381 266.716 211.627 267.962 213.164 267.962H259.434ZM257.633 243.969C257.633 247.097 255.093 249.642 251.971 249.642H153.126C150.004 249.642 147.464 247.097 147.464 243.969C147.464 240.846 150.004 238.306 153.126 238.306H153.354C154.571 239.528 155.996 240.528 157.626 241.256C162.774 243.555 168.997 242.782 173.505 239.387C176.299 241.872 179.705 243.226 183.231 243.226C186.73 243.226 190.111 241.893 192.893 239.444C195.673 241.886 199.049 243.215 202.543 243.215C206.039 243.215 209.416 241.89 212.199 239.448C214.98 241.895 218.364 243.226 221.867 243.226C225.395 243.226 228.804 241.871 231.593 239.388C236.099 242.783 242.315 243.555 247.463 241.258C249.095 240.53 250.522 239.529 251.741 238.307H251.971C255.093 238.306 257.633 240.846 257.633 243.969ZM154.329 227.932H250.768C250.174 231.931 248.248 234.812 245.196 236.174C241.68 237.742 237.202 237.019 234.285 234.4C231.801 232.21 229.818 233.273 228.585 234.559C226.682 236.558 224.297 237.659 221.867 237.659C219.43 237.659 217.04 236.558 215.138 234.559C215.091 234.509 215.042 234.461 214.991 234.415C212.502 232.158 210.504 233.245 209.272 234.548C207.342 236.576 205.016 237.648 202.543 237.648C200.114 237.648 197.727 236.547 195.831 234.554C194.6 233.252 192.607 232.168 190.11 234.403C190.054 234.452 190.001 234.504 189.949 234.559C188.047 236.558 185.661 237.659 183.231 237.659C180.801 237.659 178.416 236.558 176.505 234.55C175.271 233.263 173.28 232.195 170.795 234.415C167.891 237.019 163.41 237.741 159.896 236.173C156.846 234.812 154.923 231.931 154.329 227.932ZM147.22 222.366C146.362 222.366 145.663 221.667 145.663 220.808V217.003C145.663 200.613 155.134 190.804 163.079 185.462C173.447 178.491 187.464 174.652 202.548 174.652C217.632 174.652 231.649 178.491 242.017 185.462C249.963 190.804 259.434 200.613 259.434 217.003V220.808C259.434 221.666 258.735 222.365 257.876 222.365H147.22V222.366Z" fill="#1BAC4B"/>
</g>
<defs>
<clipPath id="clip0_35_106">
<rect width="190" height="190" fill="white" transform="translate(75 96)"/>
</clipPath>
</defs>
</svg>
