<svg width="348" height="361" viewBox="0 0 348 361" fill="none" xmlns="http://www.w3.org/2000/svg">
<path opacity="0.15" fill-rule="evenodd" clip-rule="evenodd" d="M299.25 0.0179357C311.951 -0.509815 321.359 10.7129 330.173 19.9762C338.748 28.9883 347.702 38.7438 347.992 51.2464C348.286 63.9597 340.603 75.0796 331.657 84.0172C322.775 92.8907 311.721 99.3489 299.25 99.9423C286.182 100.564 273.331 96.1429 263.642 87.2537C253.463 77.9151 244.653 65.0595 246.171 51.2464C247.612 38.1403 261.334 31.5492 270.767 22.4446C279.816 13.7111 286.751 0.537248 299.25 0.0179357Z" fill="#1BAC4B"/>
<path opacity="0.15" fill-rule="evenodd" clip-rule="evenodd" d="M42.3165 249.833C55.5175 252.594 57.7161 270.554 68.4608 278.72C83.1497 289.884 111.963 286.664 114.796 304.919C117.525 322.505 92.214 329.976 78.0886 340.766C66.8639 349.339 55.7968 364.471 42.3165 360.281C28.7485 356.064 30.5652 336.132 23.4821 323.792C19.5336 316.914 13.2144 312.388 10.5385 304.919C5.76592 291.598 -4.68606 277.154 2.38257 264.901C9.78293 252.073 27.8419 246.806 42.3165 249.833Z" fill="#1BAC4B"/>
<path d="M240.281 214.047H239.235L227.784 187.34C229.726 188.191 231.818 188.644 233.937 188.672C234.779 188.672 235.585 188.338 236.18 187.743C236.775 187.148 237.109 186.341 237.109 185.5V160.125C237.109 159.284 236.775 158.477 236.18 157.882C235.585 157.287 234.779 156.953 233.937 156.953C230.634 156.971 227.419 158.02 224.741 159.953C222.063 161.887 220.055 164.608 218.998 167.738C218.065 166.434 216.874 165.337 215.499 164.513C214.124 163.689 212.594 163.156 211.005 162.948C208.99 162.688 206.944 162.817 204.978 163.329H202.219C196.858 163.329 194.479 160.157 190.737 154.987L188.865 152.354C190.785 152.256 192.644 151.654 194.257 150.609C195.481 149.721 196.518 148.6 197.307 147.31C198.096 146.02 198.623 144.586 198.857 143.092C199.887 142.498 200.789 141.704 201.508 140.756C202.227 139.808 202.749 138.726 203.043 137.573C203.177 136.664 203.089 135.736 202.785 134.868C202.481 134.001 201.971 133.22 201.299 132.593C200.004 130.376 199.294 127.865 199.237 125.298C200.056 125.249 200.824 124.884 201.38 124.281C201.936 123.678 202.237 122.883 202.219 122.062C202.219 118.701 201.551 115.372 200.254 112.271C198.957 109.169 197.057 106.356 194.664 103.995C192.27 101.634 189.432 99.7725 186.313 98.518C183.194 97.2635 179.856 96.6413 176.495 96.6875C169.898 96.8174 163.608 99.4957 158.942 104.161C154.277 108.827 151.599 115.117 151.469 121.714C151.409 125.077 152.024 128.418 153.277 131.539C154.53 134.661 156.396 137.5 158.764 139.889C159.466 140.586 160.207 141.243 160.984 141.855C148.741 144.837 142.302 156.319 139.003 166.279C138.065 165.333 136.948 164.582 135.717 164.07C134.487 163.559 133.167 163.296 131.835 163.297H98.1495C96.458 163.294 94.7928 163.717 93.3074 164.526C91.8219 165.335 90.5638 166.505 89.6489 167.928C89.1904 168.635 89.0314 169.494 89.2069 170.318C89.3824 171.142 89.878 171.862 90.5846 172.321C91.2912 172.779 92.1511 172.938 92.9749 172.763C93.7988 172.587 94.5192 172.092 94.9777 171.385C95.3194 170.856 95.7893 170.421 96.3438 170.122C96.8983 169.822 97.5194 169.668 98.1495 169.672H103.891V179.188C103.891 180.029 104.225 180.836 104.82 181.431C105.414 182.026 106.221 182.36 107.062 182.36H122.922C123.763 182.36 124.57 182.026 125.165 181.431C125.76 180.836 126.094 180.029 126.094 179.188V169.641H131.835C132.33 169.641 132.821 169.738 133.279 169.928C133.737 170.118 134.153 170.396 134.504 170.746C134.854 171.097 135.132 171.513 135.322 171.971C135.512 172.429 135.609 172.92 135.609 173.415V197.617C135.601 198.612 135.2 199.564 134.493 200.265C133.786 200.966 132.83 201.359 131.835 201.359H98.1495C97.2411 201.385 96.3551 201.075 95.6594 200.491C94.9637 199.906 94.5067 199.087 94.375 198.188H100.719C101.56 198.188 102.367 197.853 102.962 197.259C103.556 196.664 103.891 195.857 103.891 195.016C103.891 194.174 103.556 193.368 102.962 192.773C102.367 192.178 101.56 191.844 100.719 191.844H94.375V185.5H97.5469C98.3881 185.5 99.1949 185.166 99.7897 184.571C100.385 183.976 100.719 183.169 100.719 182.328C100.719 181.487 100.385 180.68 99.7897 180.085C99.1949 179.49 98.3881 179.156 97.5469 179.156H81.6875C80.8463 179.156 80.0395 179.49 79.4446 180.085C78.8498 180.68 78.5156 181.487 78.5156 182.328C78.5156 183.169 78.8498 183.976 79.4446 184.571C80.0395 185.166 80.8463 185.5 81.6875 185.5H88.0312V191.844H75.3437C74.5025 191.844 73.6957 192.178 73.1009 192.773C72.506 193.368 72.1719 194.174 72.1719 195.016C72.1719 195.857 72.506 196.664 73.1009 197.259C73.6957 197.853 74.5025 198.188 75.3437 198.188H88.0312C88.1769 200.757 89.2993 203.174 91.1685 204.943C93.0378 206.712 95.5125 207.699 98.0861 207.703H113.945C112.478 209.142 111.227 210.788 110.234 212.588C105.999 220.894 103.823 230.098 103.891 239.422C103.891 240.263 104.225 241.07 104.82 241.665C105.414 242.26 106.221 242.594 107.062 242.594H116.8C117.612 248.69 120.61 254.283 125.236 258.335C129.863 262.386 135.803 264.619 141.953 264.619C148.103 264.619 154.043 262.386 158.67 258.335C163.296 254.283 166.294 248.69 167.106 242.594H215.128C215.739 247.44 217.735 252.007 220.877 255.746C224.019 259.486 228.174 262.239 232.842 263.675C237.511 265.111 242.494 265.17 247.195 263.843C251.896 262.517 256.114 259.862 259.343 256.197C262.572 252.533 264.675 248.014 265.399 243.183C266.123 238.353 265.438 233.416 263.425 228.966C261.412 224.516 258.158 220.741 254.053 218.094C249.947 215.448 245.166 214.042 240.281 214.047ZM119.75 175.984H110.234V169.641H119.75V175.984ZM230.766 163.836V181.789C228.907 181.135 227.297 179.92 226.158 178.312C225.019 176.705 224.408 174.783 224.408 172.812C224.408 170.842 225.019 168.92 226.158 167.313C227.297 165.705 228.907 164.49 230.766 163.836ZM210.085 169.197C211.328 169.383 212.484 169.949 213.392 170.818C214.301 171.687 214.918 172.816 215.16 174.05L215.985 175.984C211.568 178.255 206.641 179.347 201.68 179.156C201.243 177.272 201.471 175.295 202.327 173.56C203.183 171.825 204.613 170.44 206.374 169.641C207.57 169.253 208.833 169.112 210.085 169.228V169.197ZM194.448 138.239C193.92 138.505 193.477 138.913 193.168 139.418C192.86 139.922 192.699 140.503 192.703 141.094C192.68 141.892 192.49 142.677 192.146 143.398C191.802 144.119 191.311 144.76 190.705 145.281C188.897 146.486 185.535 146.201 181.189 144.488C180.957 144.462 180.723 144.462 180.491 144.488L180.016 144.075V131.927C180.016 130.152 180.721 128.45 181.976 127.195C183.231 125.939 184.933 125.234 186.708 125.234H192.703C192.803 129.34 194.092 133.329 196.414 136.717C195.84 137.33 195.177 137.854 194.448 138.271V138.239ZM157.812 121.777C157.971 116.856 159.997 112.179 163.479 108.698C166.96 105.216 171.637 103.19 176.558 103.031H176.844C181.343 103.028 185.698 104.62 189.136 107.523C192.574 110.427 194.871 114.454 195.621 118.891H186.708C183.253 118.899 179.942 120.275 177.499 122.718C175.056 125.161 173.68 128.472 173.672 131.927V140.84C169.192 140.083 165.13 137.749 162.222 134.258C159.313 130.768 157.749 126.352 157.812 121.809V121.777ZM167.328 147.438C177.7 147.438 181.506 152.861 185.535 158.571C188.453 162.758 191.878 167.325 197.588 168.943C195.792 171.845 194.98 175.249 195.272 178.649C191.335 177.789 187.622 176.114 184.372 173.732C181.121 171.35 178.406 168.314 176.4 164.819C176.227 164.4 175.966 164.023 175.635 163.713C175.304 163.403 174.911 163.168 174.481 163.023C174.051 162.878 173.596 162.827 173.144 162.873C172.693 162.919 172.257 163.061 171.866 163.29C171.475 163.519 171.137 163.829 170.875 164.2C170.614 164.57 170.435 164.993 170.351 165.438C170.266 165.884 170.278 166.342 170.386 166.783C170.494 167.223 170.695 167.635 170.976 167.991C172.126 169.921 173.442 171.746 174.909 173.447L174.623 173.637C171.667 177.038 169.587 181.111 168.565 185.5H141.953V182.328C142.175 180.393 145.791 147.438 167.328 147.438ZM141.953 197.585V191.844H170.5C171.134 191.844 186.359 192.034 186.359 207.703V223.563H173.672V217.219C173.752 215.115 173.397 213.016 172.628 211.056C171.859 209.096 170.694 207.315 169.205 205.826C167.716 204.337 165.936 203.172 163.975 202.403C162.015 201.635 159.917 201.279 157.812 201.359H141.224C141.708 200.16 141.956 198.878 141.953 197.585ZM141.953 258.453C137.459 258.449 133.111 256.854 129.68 253.951C126.249 251.048 123.956 247.025 123.207 242.594H129.71C130.44 245.282 132.035 247.654 134.247 249.346C136.46 251.037 139.168 251.954 141.953 251.954C144.738 251.954 147.446 251.037 149.659 249.346C151.872 247.654 153.466 245.282 154.197 242.594H160.699C159.95 247.025 157.657 251.048 154.226 253.951C150.795 256.854 146.447 258.449 141.953 258.453ZM136.497 242.594H147.409C146.847 243.54 146.049 244.325 145.092 244.869C144.136 245.414 143.054 245.7 141.953 245.7C140.852 245.7 139.771 245.414 138.814 244.869C137.857 244.325 137.059 243.54 136.497 242.594ZM110.234 236.25C110.639 228.949 112.608 221.821 116.007 215.347C117.27 213 119.154 211.045 121.453 209.697C123.752 208.348 126.378 207.659 129.044 207.703H157.812C159.08 207.634 160.348 207.834 161.534 208.287C162.719 208.741 163.796 209.44 164.694 210.338C165.591 211.235 166.29 212.312 166.744 213.498C167.198 214.683 167.397 215.951 167.328 217.219V226.734C167.328 230.166 168.441 233.505 170.5 236.25H110.234ZM183.187 236.25C181.224 236.244 179.311 235.632 177.709 234.496C176.108 233.36 174.897 231.757 174.243 229.906H189.531C190.359 229.853 191.189 229.973 191.968 230.259C192.747 230.545 193.458 230.99 194.055 231.566C194.652 232.142 195.122 232.837 195.436 233.605C195.749 234.373 195.899 235.199 195.875 236.028C194.823 236.168 193.764 236.242 192.703 236.25H183.187ZM203.519 232.539C203.061 233.057 202.539 233.516 201.965 233.903C201.617 231.505 200.542 229.271 198.887 227.502C197.231 225.732 195.073 224.513 192.703 224.007V207.703C192.989 202.528 191.333 197.432 188.06 193.413C184.786 189.394 180.13 186.742 175.004 185.976C175.817 183.131 177.21 180.485 179.096 178.205C179.178 178.094 179.252 177.977 179.318 177.856C184.241 181.849 190.165 184.416 196.446 185.278L205.391 224.165C205.893 227.094 205.221 230.103 203.519 232.539ZM211.734 222.865L203.012 185.5C208.379 185.549 213.682 184.332 218.49 181.948L233.462 216.838L219.632 236.25H208.562C209.955 234.342 210.952 232.175 211.497 229.877C212.041 227.579 212.122 225.195 211.734 222.865ZM240.281 236.25H234.826C235.524 235.041 236.602 234.095 237.892 233.561C239.182 233.027 240.612 232.933 241.961 233.294C243.31 233.656 244.502 234.452 245.352 235.56C246.202 236.668 246.663 238.025 246.663 239.422C246.663 240.818 246.202 242.176 245.352 243.284C244.502 244.392 243.31 245.188 241.961 245.549C240.612 245.911 239.182 245.817 237.892 245.283C236.602 244.748 235.524 243.803 234.826 242.594H240.281C241.122 242.594 241.929 242.26 242.524 241.665C243.119 241.07 243.453 240.263 243.453 239.422C243.453 238.581 243.119 237.774 242.524 237.179C241.929 236.584 241.122 236.25 240.281 236.25ZM227.403 236.25L228.514 234.696C228.322 235.203 228.163 235.722 228.038 236.25H227.403ZM240.281 258.453C235.787 258.449 231.44 256.854 228.009 253.951C224.578 251.048 222.284 247.025 221.535 242.594H228.038C228.732 245.269 230.282 247.645 232.45 249.359C234.619 251.073 237.288 252.032 240.052 252.09C242.815 252.148 245.522 251.302 247.761 249.681C249.999 248.059 251.647 245.751 252.454 243.107C253.26 240.463 253.181 237.628 252.228 235.033C251.276 232.438 249.502 230.225 247.176 228.731C244.851 227.237 242.101 226.543 239.345 226.755C236.588 226.967 233.977 228.074 231.907 229.906L238.664 220.391C239.203 220.391 239.742 220.391 240.281 220.391C245.329 220.391 250.169 222.396 253.738 225.965C257.307 229.534 259.312 234.374 259.312 239.422C259.312 244.469 257.307 249.31 253.738 252.879C250.169 256.448 245.329 258.453 240.281 258.453Z" fill="#1BAC4B"/>
</svg>
