<svg width="348" height="361" viewBox="0 0 348 361" fill="none" xmlns="http://www.w3.org/2000/svg">
<path opacity="0.15" fill-rule="evenodd" clip-rule="evenodd" d="M299.25 0.0179357C311.951 -0.509815 321.359 10.7129 330.173 19.9762C338.748 28.9883 347.702 38.7438 347.992 51.2464C348.286 63.9597 340.603 75.0796 331.657 84.0172C322.775 92.8907 311.721 99.3489 299.25 99.9423C286.182 100.564 273.331 96.1429 263.642 87.2537C253.463 77.9151 244.653 65.0595 246.171 51.2464C247.612 38.1403 261.334 31.5492 270.767 22.4446C279.816 13.7111 286.751 0.537248 299.25 0.0179357Z" fill="#1BAC4B"/>
<path opacity="0.15" fill-rule="evenodd" clip-rule="evenodd" d="M42.3165 249.833C55.5175 252.594 57.7161 270.554 68.4608 278.72C83.1497 289.884 111.963 286.664 114.796 304.919C117.525 322.505 92.214 329.976 78.0886 340.766C66.8639 349.339 55.7968 364.471 42.3165 360.281C28.7485 356.064 30.5652 336.132 23.4821 323.792C19.5336 316.914 13.2144 312.388 10.5385 304.919C5.76592 291.598 -4.68606 277.154 2.38257 264.901C9.78293 252.073 27.8419 246.806 42.3165 249.833Z" fill="#1BAC4B"/>
<path d="M84.9479 268.858C85.1079 269.497 85.4767 270.064 85.9957 270.469C86.5147 270.874 87.1541 271.094 87.8125 271.094H211.844C212.502 271.094 213.142 270.874 213.661 270.469C214.18 270.064 214.548 269.497 214.708 268.858L217.661 257.046C217.77 256.61 217.779 256.156 217.686 255.717C217.593 255.277 217.401 254.865 217.125 254.511C216.849 254.157 216.496 253.871 216.092 253.674C215.689 253.477 215.246 253.375 214.797 253.375H211.693C211.022 239.498 205.713 226.247 196.616 215.746C187.52 205.244 175.162 198.099 161.522 195.455C161.558 195.071 161.641 194.696 161.641 194.312C161.641 191.18 160.396 188.175 158.181 185.96C155.966 183.745 152.961 182.5 149.828 182.5C146.695 182.5 143.691 183.745 141.475 185.96C139.26 188.175 138.016 191.18 138.016 194.312C138.016 194.696 138.098 195.071 138.134 195.455C124.494 198.099 112.136 205.244 103.04 215.746C93.9433 226.247 88.6343 239.498 87.9631 253.375H84.8594C84.4105 253.375 83.9675 253.477 83.5641 253.674C83.1607 253.871 82.8075 254.157 82.5313 254.511C82.2551 254.865 82.0633 255.277 81.9703 255.717C81.8774 256.156 81.8857 256.61 81.9948 257.046L84.9479 268.858ZM209.537 265.188H90.1189L88.6423 259.281H211.014L209.537 265.188ZM143.922 194.312C143.922 192.746 144.544 191.244 145.652 190.136C146.759 189.029 148.262 188.406 149.828 188.406C151.395 188.406 152.897 189.029 154.005 190.136C155.112 191.244 155.734 192.746 155.734 194.312C155.734 194.413 155.708 194.51 155.705 194.608C153.768 194.425 151.813 194.312 149.828 194.312C147.844 194.312 145.889 194.428 143.951 194.608C143.948 194.51 143.922 194.413 143.922 194.312ZM149.828 200.219C164.184 200.242 177.985 205.766 188.393 215.653C198.802 225.54 205.026 239.039 205.787 253.375H93.8693C94.6299 239.039 100.854 225.54 111.263 215.653C121.671 205.766 135.472 200.242 149.828 200.219Z" fill="#1BAC4B"/>
<path d="M106.343 231.227L111.455 234.18C116.306 225.801 123.763 219.237 132.69 215.49C141.617 211.743 151.525 211.018 160.902 213.425L162.379 207.708C151.752 204.977 140.523 205.797 130.406 210.044C120.289 214.29 111.838 221.729 106.343 231.227Z" fill="#1BAC4B"/>
<path d="M101.208 243.777L106.925 245.254C107.41 243.37 108.02 241.52 108.75 239.717L103.275 237.502C102.449 239.546 101.759 241.643 101.208 243.777Z" fill="#1BAC4B"/>
<path d="M256.141 108.672H247.281V96.8593C247.281 96.4331 247.189 96.0119 247.011 95.6247C246.832 95.2375 246.573 94.8935 246.249 94.6163C245.925 94.3391 245.545 94.1352 245.135 94.0188C244.725 93.9023 244.295 93.876 243.873 93.9417L149.373 108.707V108.763C148.683 108.862 148.052 109.206 147.593 109.731C147.135 110.256 146.88 110.928 146.875 111.625V176.594H152.781V114.578H253.188V265.187H220.703V271.094H256.141C256.924 271.094 257.675 270.783 258.229 270.229C258.783 269.675 259.094 268.924 259.094 268.141V111.625C259.094 110.842 258.783 110.091 258.229 109.537C257.675 108.983 256.924 108.672 256.141 108.672ZM241.375 108.672H187.856L241.375 100.309V108.672Z" fill="#1BAC4B"/>
<path d="M175.839 146.407L167.485 138.055L163.309 142.231L171.663 150.583C174.07 152.989 177.234 154.49 180.619 154.832C184.005 155.175 187.405 154.337 190.245 152.461L198.809 161.025L171.663 188.17L175.839 192.346L202.984 165.201L230.129 192.346L234.305 188.17L207.16 161.025L211.548 156.637C214.389 158.51 217.788 159.346 221.173 159.004C224.558 158.662 227.722 157.162 230.129 154.758L234.305 150.583C235.715 149.221 236.84 147.591 237.614 145.79C238.388 143.988 238.795 142.051 238.812 140.09C238.829 138.13 238.456 136.185 237.713 134.371C236.971 132.556 235.875 130.907 234.488 129.521C233.102 128.135 231.453 127.038 229.639 126.296C227.824 125.553 225.88 125.18 223.919 125.197C221.958 125.214 220.021 125.621 218.219 126.395C216.418 127.169 214.789 128.294 213.427 129.704L209.251 133.88C206.845 136.286 205.343 139.45 205.001 142.836C204.659 146.221 205.497 149.622 207.373 152.461L202.984 156.849L194.42 148.285C196.296 145.446 197.134 142.046 196.792 138.66C196.45 135.274 194.948 132.11 192.542 129.704L184.191 121.35L180.015 125.525L188.366 133.88C189.649 135.175 190.5 136.834 190.805 138.631C191.11 140.428 190.854 142.275 190.07 143.92L175.839 129.689L171.663 133.865L185.895 148.096C184.249 148.885 182.399 149.145 180.6 148.843C178.8 148.541 177.137 147.69 175.839 146.407ZM213.427 138.055L217.602 133.88C219.273 132.266 221.511 131.373 223.834 131.393C226.157 131.413 228.379 132.345 230.022 133.988C231.664 135.63 232.596 137.852 232.616 140.175C232.636 142.498 231.743 144.736 230.129 146.407L225.954 150.583C225.137 151.429 224.159 152.104 223.078 152.568C221.997 153.032 220.835 153.277 219.658 153.287C218.482 153.297 217.315 153.073 216.227 152.628C215.138 152.182 214.149 151.524 213.317 150.692C212.485 149.861 211.827 148.871 211.382 147.783C210.936 146.694 210.712 145.527 210.722 144.351C210.732 143.175 210.977 142.012 211.441 140.931C211.906 139.85 212.58 138.873 213.427 138.055Z" fill="#1BAC4B"/>
<path d="M238.422 200.219H244.328V206.125H238.422V200.219Z" fill="#1BAC4B"/>
<path d="M238.422 212.031H244.328V217.938H238.422V212.031Z" fill="#1BAC4B"/>
<path d="M238.422 223.844H244.328V229.75H238.422V223.844Z" fill="#1BAC4B"/>
<path d="M194.125 200.219H232.516V206.125H194.125V200.219Z" fill="#1BAC4B"/>
<path d="M205.938 212.031H232.516V217.938H205.938V212.031Z" fill="#1BAC4B"/>
<path d="M214.797 223.844H232.516V229.75H214.797V223.844Z" fill="#1BAC4B"/>
<path d="M135.062 117.531H140.969V170.688H135.062V117.531Z" fill="#1BAC4B"/>
</svg>
