<svg width="164" height="164" viewBox="0 0 164 164" fill="none" xmlns="http://www.w3.org/2000/svg">
<path d="M155.469 47.6634C154.978 47.1498 154.298 46.8577 153.587 46.8577H78.0949C77.383 46.8577 76.7027 47.1498 76.2123 47.6634C75.7204 48.177 75.4607 48.8707 75.4939 49.5826L77.3742 90.0131C77.4406 91.4472 78.6783 92.5786 80.0957 92.4921C81.5322 92.4257 82.6422 91.2055 82.5758 89.769L80.8221 52.0642H150.862L145.897 158.794H87.4343C85.9967 158.794 84.831 159.958 84.831 161.397C84.831 162.836 85.9967 164 87.4343 164H148.381C149.771 164 150.916 162.907 150.981 161.519L156.188 49.5826C156.22 48.8707 155.961 48.177 155.469 47.6634Z" fill="white"/>
<path d="M106.73 143.175H13.0165C11.5789 143.175 10.4132 144.339 10.4132 145.778C10.4132 155.825 18.5876 164 28.6355 164H91.1114C101.159 164 109.334 155.824 109.334 145.778C109.333 144.339 108.168 143.175 106.73 143.175ZM91.1114 158.794H28.6355C22.3494 158.794 17.0898 154.314 15.8814 148.381H103.865C102.656 154.314 97.3967 158.794 91.1114 158.794Z" fill="white"/>
<path d="M106.73 127.556H13.0164C7.27522 127.556 2.60364 132.226 2.60364 137.969C2.60364 143.711 7.27484 148.381 13.0164 148.381H106.73C112.471 148.381 117.143 143.711 117.143 137.969C117.143 132.226 112.471 127.556 106.73 127.556ZM106.73 143.175H13.0164C10.1451 143.175 7.81022 140.839 7.81022 137.969C7.81022 135.099 10.1454 132.762 13.0164 132.762H106.73C109.602 132.762 111.936 135.099 111.936 137.969C111.936 140.839 109.601 143.175 106.73 143.175Z" fill="white"/>
<path d="M114.539 78.0957C102.662 78.0957 92.2968 86.1195 89.3324 97.6046C88.9725 98.9979 89.8102 100.416 91.2021 100.777C92.5973 101.133 94.0135 100.299 94.3735 98.906C96.7438 89.718 105.036 83.3019 114.539 83.3019C126.022 83.3019 135.364 92.6439 135.364 104.127C135.364 115.61 126.022 124.952 114.539 124.952C112.151 124.952 109.812 124.553 107.589 123.765C106.235 123.29 104.745 123.994 104.266 125.349C103.786 126.704 104.495 128.191 105.85 128.672C108.633 129.658 111.556 130.159 114.539 130.159C128.894 130.159 140.57 118.48 140.57 104.127C140.57 89.7737 128.893 78.0957 114.539 78.0957Z" fill="white"/>
<path d="M65.0796 85.9052H54.6668C30.2649 85.9052 10.4132 105.757 10.4132 130.159C10.4132 131.598 11.5789 132.762 13.0165 132.762H106.73C108.168 132.762 109.334 131.598 109.334 130.159C109.333 105.757 89.4816 85.9052 65.0796 85.9052ZM15.706 127.556C17.0505 107.234 34.0106 91.1117 54.6668 91.1117H65.0796C85.7359 91.1117 102.696 107.234 104.04 127.556H15.706Z" fill="white"/>
<path d="M39.0479 101.524H33.8417V106.73H39.0479V101.524Z" fill="white"/>
<path d="M36.4445 111.936H31.2383V117.142H36.4445V111.936Z" fill="white"/>
<path d="M67.6825 98.9204H62.4763V104.127H67.6825V98.9204Z" fill="white"/>
<path d="M83.3014 111.936H78.0952V117.142H83.3014V111.936Z" fill="white"/>
<path d="M59.873 114.539H54.6667V119.746H59.873V114.539Z" fill="white"/>
<path d="M158.793 36.4453H70.2858C68.8482 36.4453 67.6825 37.6095 67.6825 39.0486V49.4614C67.6825 50.9001 68.8482 52.0647 70.2858 52.0647H158.793C160.231 52.0647 161.397 50.9005 161.397 49.4614V39.0486C161.397 37.6095 160.231 36.4453 158.793 36.4453ZM156.19 46.8577H72.8891V41.6515H156.19V46.8577Z" fill="white"/>
<path d="M91.0537 38.5018L83.2442 2.05768C82.943 0.65441 81.5614 -0.245511 80.1528 0.0599284C78.7473 0.360029 77.8512 1.74537 78.1524 3.15131L85.9619 39.5955C86.2235 40.8157 87.3038 41.6519 88.5053 41.6519C88.6857 41.6519 88.8702 41.6336 89.0533 41.5932C90.4592 41.2931 91.3553 39.9074 91.0537 38.5018Z" fill="white"/>
</svg>
