<svg width="24" height="20" viewBox="0 0 24 20" fill="none" xmlns="http://www.w3.org/2000/svg">
<path d="M23.4561 2.44294C23.0791 2.61016 22.6915 2.7513 22.2954 2.86588C22.7643 2.33556 23.1218 1.71156 23.3401 1.02872C23.389 0.87566 23.3383 0.708125 23.2125 0.608021C23.0869 0.507841 22.9123 0.495841 22.7739 0.577828C21.9328 1.07672 21.0253 1.43525 20.0737 1.6449C19.1152 0.70828 17.8133 0.175247 16.4674 0.175247C13.6265 0.175247 11.3152 2.48645 11.3152 5.32727C11.3152 5.55101 11.3294 5.77352 11.3574 5.99292C7.83215 5.6834 4.55475 3.95068 2.30417 1.18998C2.22396 1.09158 2.1004 1.03855 1.9739 1.04869C1.84732 1.0586 1.73359 1.12998 1.66964 1.23969C1.21318 2.02294 0.971862 2.91876 0.971862 3.83021C0.971862 5.07163 1.41509 6.24949 2.19803 7.16985C1.95996 7.0874 1.72895 6.98436 1.50846 6.86196C1.39008 6.79607 1.24562 6.79708 1.12802 6.86451C1.01034 6.93194 0.936558 7.05597 0.933462 7.19153C0.93292 7.21437 0.93292 7.23721 0.93292 7.26036C0.93292 9.11339 1.93024 10.7817 3.45501 11.691C3.32402 11.6779 3.1931 11.6589 3.06304 11.6341C2.92895 11.6085 2.79106 11.6555 2.70064 11.7577C2.61006 11.8599 2.58009 12.0024 2.62182 12.1324C3.18621 13.8945 4.63929 15.1906 6.39594 15.5857C4.93898 16.4983 3.27284 16.9763 1.52378 16.9763C1.15883 16.9763 0.791784 16.9548 0.432558 16.9123C0.254107 16.8911 0.0834745 16.9965 0.0227003 17.1662C-0.0380739 17.3359 0.026339 17.5252 0.178158 17.6225C2.4251 19.0632 5.02322 19.8247 7.69147 19.8247C12.9369 19.8247 16.2184 17.3512 18.0474 15.2761C20.3282 12.6887 21.6362 9.26389 21.6362 5.87997C21.6362 5.7386 21.6341 5.59584 21.6297 5.45354C22.5296 4.77558 23.3043 3.95509 23.9348 3.01205C24.0305 2.86882 24.0201 2.67953 23.9092 2.54769C23.7984 2.41576 23.6138 2.37311 23.4561 2.44294Z" fill="#55ACEE"/>
</svg>
